<mxfile host="app.diagrams.net" modified="2023-07-17T06:59:07.193Z" agent="Mozilla/5.0 (Windows NT 10.0; Win64; x64) AppleWebKit/537.36 (KHTML, like Gecko) Chrome/114.0.0.0 Safari/537.36" version="21.6.2" etag="kTJ9vtpBA3b6y4CQ7H6-" type="github">
  <diagram name="第 1 页" id="SQxlRqDctU4_FKeMdppD">
    <mxGraphModel>
      <root>
        <mxCell id="0" />
        <mxCell id="1" parent="0" />
      </root>
    </mxGraphModel>
  </diagram>
</mxfile>
